<svg width="119" height="119" xmlns="http://www.w3.org/2000/svg">
 <!-- Created with Method Draw - http://github.com/duopixel/Method-Draw/ -->
 <g>
  <title>background</title>
 </g>
 <g>
  <title>Layer 1</title>
  <path id="svg_19" fill-rule="nonzero" fill="rgb(54.119873%,76.469421%,29.019165%)" d="m52.07031,56.58203l-43.65234,0c-1.79688,0 -3.26172,-1.46484 -3.26172,-3.26172l0,-43.65234c0,-1.79688 1.46484,-3.26172 3.26172,-3.26172l43.65234,0c1.79688,0 3.26172,1.46484 3.26172,3.26172l0,43.65234c0,1.79688 -1.46484,3.26172 -3.26172,3.26172zm0,0"/>
  <path id="svg_20" fill-rule="nonzero" fill="rgb(100%,100%,100%)" d="m29.77734,44.13281c-0.58984,0 -1.07031,-0.48437 -1.07031,-1.07422l0,-22.21093c0,-0.59375 0.48047,-1.07422 1.07031,-1.07422c0.59375,0 1.07422,0.48047 1.07422,1.07422l0,22.21093c0,0.58985 -0.48047,1.07422 -1.07422,1.07422"/>
  <g id="svg_21" clip-rule="nonzero" clip-path="url(#clip1)">
   <path id="svg_3" fill-rule="nonzero" fill="rgb(100%,100%,100%)" d="m40.88281,33.02734l-22.21093,0c-0.58985,0 -1.07032,-0.48046 -1.07032,-1.07421c0,-0.59375 0.48047,-1.07422 1.07032,-1.07422l22.21093,0c0.59375,0 1.07422,0.48047 1.07422,1.07422c0,0.59375 -0.48047,1.07421 -1.07422,1.07421"/>
  </g>
  <path id="svg_23" fill-rule="nonzero" fill="rgb(100%,75.689697%,2.349854%)" d="m110.67969,56.58203l-43.64844,0c-1.80078,0 -3.26562,-1.46484 -3.26562,-3.26172l0,-43.65234c0,-1.79688 1.46484,-3.26172 3.26562,-3.26172l43.64844,0c1.80078,0 3.26562,1.46484 3.26562,3.26172l0,43.65234c0,1.79688 -1.46484,3.26172 -3.26562,3.26172zm0,0"/>
  <path id="svg_24" fill-rule="nonzero" fill="rgb(95.689392%,25.878906%,20.779419%)" d="m52.07031,112.63672l-43.65234,0c-1.79688,0 -3.26172,-1.46484 -3.26172,-3.26172l0,-43.65234c0,-1.79688 1.46484,-3.26172 3.26172,-3.26172l43.65234,0c1.79688,0 3.26172,1.46484 3.26172,3.26172l0,43.65234c0,1.79688 -1.46484,3.26172 -3.26172,3.26172zm0,0"/>
  <path id="svg_25" fill-rule="nonzero" fill="rgb(0%,73.329163%,83.139038%)" d="m110.67969,112.63672l-43.64844,0c-1.80078,0 -3.26562,-1.46484 -3.26562,-3.26172l0,-43.65234c0,-1.79688 1.46484,-3.26172 3.26562,-3.26172l43.64844,0c1.80078,0 3.26562,1.46484 3.26562,3.26172l0,43.65234c0,1.79688 -1.46484,3.26172 -3.26562,3.26172zm0,0"/>
  <path id="svg_26" fill-rule="nonzero" fill="rgb(100%,100%,100%)" d="m108.05859,31.90625c0,-0.93359 -0.7539,-1.70312 -1.70312,-1.70312l-35.05078,0l0,0.01171c-0.91016,0.03516 -1.63281,0.78125 -1.63281,1.69141c0,0.91406 0.73437,1.65625 1.63281,1.69141l0,0.01172l35.05078,0c0.93359,0 1.70312,-0.76563 1.70312,-1.70313zm0,0"/>
  <path id="svg_27" fill-rule="nonzero" fill="rgb(100%,100%,100%)" d="m108.05859,87.5c0,-0.9375 -0.7539,-1.70312 -1.70312,-1.70312l-35.05078,0l0,0.01171c-0.91016,0.03516 -1.63281,0.78125 -1.63281,1.69141c0,0.91016 0.73437,1.65625 1.63281,1.69141l0,0.01172l35.05078,0c0.93359,0 1.70312,-0.76563 1.70312,-1.70313zm0,0"/>
  <g id="svg_28" clip-rule="nonzero" clip-path="url(#clip2)">
   <g id="svg_13" clip-rule="nonzero" clip-path="url(#clip3)">
    <g id="svg_12" clip-rule="nonzero" clip-path="url(#clip4)">
     <path id="svg_10" fill-rule="nonzero" fill="rgb(100%,100%,100%)" d="m287.58203,198.71875c-0.41797,-0.42187 -0.41797,-1.10156 0,-1.51953l15.70313,-15.70313c0.42187,-0.42187 1.10156,-0.42187 1.51953,0c0.41797,0.41797 0.41797,1.09766 0,1.51563l-15.70703,15.70703c-0.41797,0.41797 -1.09766,0.41797 -1.51563,0"/>
     <path id="svg_11" fill-rule="nonzero" fill="rgb(100%,100%,100%)" d="m303.28516,198.71875l-15.70313,-15.70703c-0.41797,-0.41797 -0.41797,-1.09766 0,-1.51563c0.41797,-0.42187 1.09766,-0.42187 1.51563,0l15.70703,15.70313c0.41797,0.41797 0.41797,1.09766 0,1.51953c-0.41797,0.41797 -1.09766,0.41797 -1.51953,0"/>
    </g>
   </g>
  </g>
 </g>
</svg>